<?xml version="1.0" encoding="UTF-8"?>
<svg width="700pt" height="700pt" version="1.1" viewBox="0 0 700 700" xmlns="http://www.w3.org/2000/svg" xmlns:xlink="http://www.w3.org/1999/xlink">
<g>
  <path d="m281.65 520.54-116.12-201.05-116.23-201.1c-9.2812-16.074-12.602-34.906-9.375-53.184s12.793-34.836 27.02-46.762c14.223-11.922 32.195-18.453 50.754-18.441h464.34c20.934 0 41.008 8.3164 55.809 23.117 14.801 14.801 23.117 34.875 23.117 55.809 0.03125 13.801-3.5977 27.363-10.523 39.305l-116.02 201.26-116.07 201.05c-14.098 24.414-40.152 39.457-68.348 39.457s-54.25-15.043-68.348-39.457z"/>
  <use x="38.773438" y="638.925781" xlink:href="#t"/>
  <use x="58.078125" y="638.925781" xlink:href="#d"/>
  <use x="71.054688" y="638.925781" xlink:href="#a"/>
  <use x="88.898438" y="638.925781" xlink:href="#j"/>
  <use x="106.648438" y="638.925781" xlink:href="#c"/>
  <use x="119.226563" y="638.925781" xlink:href="#a"/>
  <use x="137.070312" y="638.925781" xlink:href="#i"/>
  <use x="165.058594" y="638.925781" xlink:href="#h"/>
  <use x="183.890625" y="638.925781" xlink:href="#g"/>
  <use x="210.199219" y="638.925781" xlink:href="#e"/>
  <use x="229.480469" y="638.925781" xlink:href="#b"/>
  <use x="247.554688" y="638.925781" xlink:href="#f"/>
  <use x="266.285156" y="638.925781" xlink:href="#s"/>
  <use x="285.117188" y="638.925781" xlink:href="#r"/>
  <use x="38.773438" y="665.234375" xlink:href="#q"/>
  <use x="50.21875" y="665.234375" xlink:href="#d"/>
  <use x="63.191406" y="665.234375" xlink:href="#b"/>
  <use x="81.265625" y="665.234375" xlink:href="#p"/>
  <use x="117.839844" y="665.234375" xlink:href="#c"/>
  <use x="130.414062" y="665.234375" xlink:href="#o"/>
  <use x="149.144531" y="665.234375" xlink:href="#a"/>
  <use x="176.144531" y="665.234375" xlink:href="#n"/>
  <use x="198.164062" y="665.234375" xlink:href="#b"/>
  <use x="216.238281" y="665.234375" xlink:href="#f"/>
  <use x="234.96875" y="665.234375" xlink:href="#m"/>
  <use x="262.855469" y="665.234375" xlink:href="#e"/>
  <use x="282.136719" y="665.234375" xlink:href="#d"/>
  <use x="295.113281" y="665.234375" xlink:href="#b"/>
  <use x="313.1875" y="665.234375" xlink:href="#l"/>
  <use x="322.203125" y="665.234375" xlink:href="#a"/>
  <use x="340.046875" y="665.234375" xlink:href="#k"/>
  <use x="355.640625" y="665.234375" xlink:href="#c"/>
 </g>
</svg>
