<?xml version="1.0" encoding="UTF-8"?>
<svg width="700pt" height="700pt" version="1.1" viewBox="0 0 700 700" xmlns="http://www.w3.org/2000/svg" xmlns:xlink="http://www.w3.org/1999/xlink">
 <g>
  <path d="m566.4 341.49-180.88 104.47-180.92 104.43c-14.465 8.3477-31.406 11.336-47.852 8.4297-16.441-2.9023-31.34-11.508-42.066-24.305s-16.605-28.965-16.594-45.664v-417.84c0-18.832 7.4805-36.895 20.797-50.211s31.379-20.797 50.211-20.797c12.465-0.054688 24.719 3.2148 35.504 9.4688l180.92 104.61 180.88 104.43c21.969 12.684 35.5 36.125 35.5 61.492s-13.531 48.809-35.5 61.492z"/>
  <use x="98.09375" y="631.007812" xlink:href="#t"/>
  <use x="115.464844" y="631.007812" xlink:href="#d"/>
  <use x="127.136719" y="631.007812" xlink:href="#a"/>
  <use x="143.191406" y="631.007812" xlink:href="#j"/>
  <use x="159.160156" y="631.007812" xlink:href="#c"/>
  <use x="170.476562" y="631.007812" xlink:href="#a"/>
  <use x="186.527344" y="631.007812" xlink:href="#i"/>
  <use x="211.710938" y="631.007812" xlink:href="#h"/>
  <use x="228.652344" y="631.007812" xlink:href="#g"/>
  <use x="252.320312" y="631.007812" xlink:href="#e"/>
  <use x="269.667969" y="631.007812" xlink:href="#b"/>
  <use x="285.929688" y="631.007812" xlink:href="#f"/>
  <use x="302.78125" y="631.007812" xlink:href="#s"/>
  <use x="319.722656" y="631.007812" xlink:href="#r"/>
  <use x="98.09375" y="654.675781" xlink:href="#q"/>
  <use x="108.390625" y="654.675781" xlink:href="#d"/>
  <use x="120.0625" y="654.675781" xlink:href="#b"/>
  <use x="136.324219" y="654.675781" xlink:href="#p"/>
  <use x="169.226562" y="654.675781" xlink:href="#c"/>
  <use x="180.542969" y="654.675781" xlink:href="#o"/>
  <use x="197.390625" y="654.675781" xlink:href="#a"/>
  <use x="221.683594" y="654.675781" xlink:href="#n"/>
  <use x="241.492188" y="654.675781" xlink:href="#b"/>
  <use x="257.753906" y="654.675781" xlink:href="#f"/>
  <use x="274.605469" y="654.675781" xlink:href="#m"/>
  <use x="299.695312" y="654.675781" xlink:href="#e"/>
  <use x="317.042969" y="654.675781" xlink:href="#d"/>
  <use x="328.714844" y="654.675781" xlink:href="#b"/>
  <use x="344.972656" y="654.675781" xlink:href="#l"/>
  <use x="353.085938" y="654.675781" xlink:href="#a"/>
  <use x="369.140625" y="654.675781" xlink:href="#k"/>
  <use x="383.171875" y="654.675781" xlink:href="#c"/>
 </g>
</svg>
